<svg width="24" height="24" viewBox="0 0 24 24" fill="none" xmlns="http://www.w3.org/2000/svg">
<path d="M10.0735 1C10.58 1 11 1.42 11 1.92647V5.01471C11 8.58471 8.08471 11.5 4.51471 11.5H1.42647C0.92 11.5 0.5 11.08 0.5 10.5735C0.5 10.0671 0.92 9.64706 1.42647 9.64706H4.51471C7.07176 9.64706 9.14706 7.57176 9.14706 5.01471V1.92647C9.14706 1.42 9.56706 1 10.0735 1Z" fill="currentColor"/>
<path d="M13.4265 1C13.9329 1 14.3529 1.42 14.3529 1.92647V5.01471C14.3529 7.57176 16.4282 9.64706 18.9853 9.64706H22.0735C22.58 9.64706 23 10.0671 23 10.5735C23 11.08 22.58 11.5 22.0735 11.5H18.9853C15.4153 11.5 12.5 8.58471 12.5 5.01471V1.92647C12.5 1.42 12.92 1 13.4265 1Z" fill="currentColor"/>
<path d="M13.4265 23.25C13.9329 23.25 14.3529 22.83 14.3529 22.3235V19.2353C14.3529 16.6782 16.4282 14.6029 18.9853 14.6029H22.0735C22.58 14.6029 23 14.1829 23 13.6765C23 13.17 22.58 12.75 22.0735 12.75H18.9853C15.4153 12.75 12.5 15.6653 12.5 19.2353V22.3235C12.5 22.83 12.92 23.25 13.4265 23.25Z" fill="currentColor"/>
<path d="M1.42647 12.75H4.51471C8.08471 12.75 11 15.6653 11 19.2353V22.3235C11 22.83 10.58 23.25 10.0735 23.25C9.56706 23.25 9.14706 22.83 9.14706 22.3235V19.2353C9.14706 16.6782 7.07176 14.6029 4.51471 14.6029H1.42647C0.92 14.6029 0.5 14.1829 0.5 13.6765C0.5 13.17 0.92 12.75 1.42647 12.75Z" fill="currentColor"/>
</svg>
