<svg width="24" height="24" viewBox="0 0 24 24" fill="none" xmlns="http://www.w3.org/2000/svg">
<path fill-rule="evenodd" clip-rule="evenodd" d="M17.8063 16.453L17.6656 16.6285L21.5333 20.4649C21.6674 20.6046 21.7424 20.7907 21.7424 20.9844C21.7424 21.1784 21.6672 21.3648 21.5327 21.5045C21.4632 21.5743 21.3807 21.6297 21.2898 21.6675C21.1984 21.7056 21.1004 21.7252 21.0014 21.7252C20.9024 21.7252 20.8043 21.7056 20.7129 21.6675C20.6215 21.6295 20.5386 21.5737 20.4689 21.5034L16.6297 17.6642L16.455 17.8044C14.7092 19.2045 12.4934 19.8825 10.2632 19.6991C8.03289 19.5156 5.95766 18.4846 4.46419 16.8181C2.97073 15.1516 2.17253 12.9761 2.23375 10.7392C2.29496 8.50221 3.21092 6.3737 4.79329 4.79133C6.37566 3.20897 8.50416 2.293 10.7411 2.23179C12.9781 2.17058 15.1535 2.96877 16.82 4.46224C18.4866 5.95571 19.5176 8.03093 19.701 10.2612C19.8845 12.4915 19.2064 14.7073 17.8063 16.453ZM6.97348 17.0276C8.16574 17.8242 9.56745 18.2494 11.0014 18.2494C12.9242 18.2494 14.7683 17.4856 16.1279 16.1259C17.4875 14.7663 18.2514 12.9222 18.2514 10.9994C18.2514 9.5655 17.8262 8.16379 17.0295 6.97153C16.2329 5.77928 15.1006 4.85002 13.7758 4.30129C12.4511 3.75255 10.9933 3.60898 9.58696 3.88872C8.1806 4.16847 6.88878 4.85896 5.87485 5.87289C4.86091 6.88682 4.17042 8.17865 3.89068 9.58501C3.61093 10.9914 3.75451 12.4491 4.30324 13.7739C4.85198 15.0986 5.78123 16.2309 6.97348 17.0276Z" fill="white"/>
</svg>
