<svg width="32" height="32" viewBox="0 0 32 32" fill="none" xmlns="http://www.w3.org/2000/svg">
<path fill-rule="evenodd" clip-rule="evenodd" d="M6.57028 26.4291C7.3628 27.2216 8.43764 27.6669 9.55842 27.667C10.3007 27.6658 11.0305 27.4692 11.6732 27.0979L24.5526 19.7115C25.1938 19.3403 25.7262 18.807 26.0963 18.1651C26.4666 17.523 26.6615 16.7949 26.6615 16.0537C26.6615 15.3125 26.4666 14.5844 26.0963 13.9423C25.7261 13.3002 25.1935 12.7668 24.552 12.3955L24.3857 12.2992L17.999 8.66703L11.6723 4.90236C11.0263 4.52932 10.2931 4.3339 9.54709 4.33595C8.80112 4.338 8.06897 4.53744 7.42502 4.91402C6.78108 5.2906 6.24826 5.8309 5.88071 6.48004C5.51315 7.12918 5.32394 7.86403 5.3323 8.60996L5.33232 8.61369V23.4404C5.33232 24.5613 5.77763 25.6364 6.57028 26.4291ZM10.67 25.3704L16.6656 22.0004L23.0523 18.2175L23.5522 17.9291C23.8909 17.7337 24.1722 17.4526 24.3677 17.114C24.5633 16.7755 24.6662 16.3914 24.6662 16.0004C24.6662 15.6094 24.5633 15.2253 24.3677 14.8867C24.1722 14.5481 23.8909 14.267 23.5522 14.0716L10.6724 6.63172L10.6662 6.62822C10.3285 6.4427 9.951 6.34167 9.56583 6.33376L9.55377 6.33373C9.16727 6.33978 8.78824 6.44121 8.45037 6.62901L8.44565 6.63169C8.1071 6.82715 7.82597 7.1083 7.63054 7.44687C7.43511 7.78542 7.33226 8.16945 7.33232 8.56036V23.4404C7.33226 23.8313 7.43511 24.2153 7.63054 24.5539C7.82597 24.8924 8.1071 25.1736 8.44565 25.369L8.44797 25.3704C8.78677 25.5624 9.16955 25.6633 9.55898 25.6633C9.94842 25.6633 10.3312 25.5624 10.67 25.3704Z" fill="#242424"/>
</svg>
