<svg width="24" height="24" viewBox="0 0 24 24" fill="none" xmlns="http://www.w3.org/2000/svg">
<path d="M13.8782 20.5906C13.0882 20.5906 12.2182 20.3106 11.3482 19.7606L8.42813 17.9306C8.22813 17.8106 7.99812 17.7406 7.76812 17.7406H6.32812C3.90812 17.7406 2.57812 16.4106 2.57812 13.9906V9.99059C2.57812 7.57059 3.90812 6.24059 6.32812 6.24059H7.75813C7.98813 6.24059 8.21813 6.17059 8.41813 6.05059L11.3382 4.22059C12.7982 3.31059 14.2182 3.14059 15.3382 3.76059C16.4582 4.38059 17.0682 5.67059 17.0682 7.40059V16.5706C17.0682 18.2906 16.4482 19.5906 15.3382 20.2106C14.8982 20.4706 14.4082 20.5906 13.8782 20.5906ZM6.32812 7.75059C4.74812 7.75059 4.07812 8.42059 4.07812 10.0006V14.0006C4.07812 15.5806 4.74812 16.2506 6.32812 16.2506H7.75813C8.27813 16.2506 8.77813 16.3906 9.21813 16.6706L12.1382 18.5006C13.1082 19.1006 14.0082 19.2606 14.6182 18.9206C15.2282 18.5806 15.5782 17.7306 15.5782 16.6006V7.41059C15.5782 6.27059 15.2282 5.42059 14.6182 5.09059C14.0082 4.75059 13.1082 4.90059 12.1382 5.51059L9.21813 7.33059C8.77813 7.61059 8.27813 7.75059 7.75813 7.75059H6.32812Z" fill="currentColor"/>
<path d="M19.3284 16.7503C19.1684 16.7503 19.0184 16.7003 18.8784 16.6003C18.5484 16.3503 18.4784 15.8803 18.7284 15.5503C20.2984 13.4603 20.2984 10.5403 18.7284 8.45027C18.4784 8.12027 18.5484 7.65027 18.8784 7.40027C19.2084 7.15027 19.6784 7.22027 19.9284 7.55027C21.8984 10.1703 21.8984 13.8303 19.9284 16.4503C19.7884 16.6503 19.5584 16.7503 19.3284 16.7503Z" fill="currentColor"/>
</svg>
