<svg width="24" height="24" viewBox="0 0 24 24" fill="none" xmlns="http://www.w3.org/2000/svg">
<path d="M13.8801 20.5886C13.0901 20.5886 12.2201 20.3086 11.3501 19.7586L8.43008 17.9286C8.23008 17.8086 8.00008 17.7386 7.77008 17.7386H6.33008C3.91008 17.7386 2.58008 16.4086 2.58008 13.9886V9.98864C2.58008 7.56864 3.91008 6.23864 6.33008 6.23864H7.76008C7.99008 6.23864 8.22008 6.16864 8.42008 6.04864L11.3401 4.21864C12.8001 3.30864 14.2201 3.13864 15.3401 3.75864C16.4601 4.37864 17.0701 5.66864 17.0701 7.39864V16.5686C17.0701 18.2886 16.4501 19.5886 15.3401 20.2086C14.9001 20.4686 14.4101 20.5886 13.8801 20.5886ZM6.33008 7.74864C4.75008 7.74864 4.08008 8.41864 4.08008 9.99864V13.9986C4.08008 15.5786 4.75008 16.2486 6.33008 16.2486H7.76008C8.28008 16.2486 8.78008 16.3886 9.22008 16.6686L12.1401 18.4986C13.1101 19.0986 14.0101 19.2586 14.6201 18.9186C15.2301 18.5786 15.5801 17.7286 15.5801 16.5986V7.40864C15.5801 6.26864 15.2301 5.41864 14.6201 5.08864C14.0101 4.74864 13.1101 4.89864 12.1401 5.50864L9.22008 7.32864C8.78008 7.60864 8.28008 7.74864 7.76008 7.74864H6.33008Z" fill="currentColor"/>
<path d="M18.4855 15.5387C18.382 15.5387 18.2849 15.5064 18.1943 15.4417C17.9808 15.2799 17.9355 14.9757 18.0972 14.7622C19.1133 13.4096 19.1133 11.5199 18.0972 10.1674C17.9355 9.95382 17.9808 9.64966 18.1943 9.48787C18.4079 9.32609 18.712 9.37139 18.8738 9.58495C20.1487 11.2805 20.1487 13.6491 18.8738 15.3446C18.7832 15.474 18.6344 15.5387 18.4855 15.5387Z" fill="currentColor"/>
</svg>
