<svg width="122" height="62" viewBox="0 0 122 62" fill="none" xmlns="http://www.w3.org/2000/svg">
<rect width="121.965" height="62" rx="16" fill="#F89A01"/>
<path d="M36.003 50.999H40.4052V19.2114C40.3938 18.7326 40.4784 18.2564 40.654 17.8108C40.8296 17.3652 41.0926 16.9592 41.4275 16.6165C41.7624 16.2739 42.1626 16.0017 42.6043 15.8158C43.0461 15.6299 43.5206 15.5342 44 15.5342C44.4793 15.5342 44.9539 15.6299 45.3957 15.8158C45.8374 16.0017 46.2376 16.2739 46.5725 16.6165C46.9074 16.9592 47.1704 17.3652 47.346 17.8108C47.5215 18.2564 47.6062 18.7326 47.5948 19.2114V51H51.997V19.2114C52.0263 18.1438 51.8412 17.0811 51.4525 16.0862C51.0638 15.0913 50.4794 14.1844 49.7339 13.4189C48.9884 12.6534 48.0969 12.0449 47.1121 11.6295C46.1272 11.214 45.069 11 44 11C42.9309 11 41.8727 11.214 40.8879 11.6295C39.9031 12.0449 39.0116 12.6534 38.2661 13.4189C37.5206 14.1844 36.9362 15.0913 36.5475 16.0862C36.1588 17.0811 35.9737 18.1438 36.003 19.2114V51V50.999Z" fill="#313131"/>
<path d="M77.003 50.999H81.4052V19.2114C81.3938 18.7326 81.4784 18.2564 81.654 17.8108C81.8296 17.3652 82.0926 16.9592 82.4275 16.6165C82.7624 16.2739 83.1626 16.0017 83.6043 15.8158C84.0461 15.6299 84.5206 15.5342 85 15.5342C85.4793 15.5342 85.9539 15.6299 86.3957 15.8158C86.8374 16.0017 87.2376 16.2739 87.5725 16.6165C87.9074 16.9592 88.1704 17.3652 88.346 17.8108C88.5215 18.2564 88.6062 18.7326 88.5948 19.2114V51H92.997V19.2114C93.0263 18.1438 92.8412 17.0811 92.4525 16.0862C92.0638 15.0913 91.4794 14.1844 90.7339 13.4189C89.9884 12.6534 89.0969 12.0449 88.1121 11.6295C87.1272 11.214 86.069 11 85 11C83.9309 11 82.8727 11.214 81.8879 11.6295C80.9031 12.0449 80.0116 12.6534 79.2661 13.4189C78.5206 14.1844 77.9362 15.0913 77.5475 16.0862C77.1588 17.0811 76.9737 18.1438 77.003 19.2114V51V50.999Z" fill="#313131"/>
<path d="M101.58 42.689C101.591 43.6501 101.22 44.5761 100.549 45.2642C99.8776 45.9522 98.9613 46.3463 98.0002 46.36H98.0732V50.855H98.0002C100.139 50.8278 102.18 49.9524 103.673 48.421C105.167 46.8897 105.991 44.8279 105.964 42.689V11H101.58V42.614" fill="#313131"/>
<path d="M31 34.8429V18.9463C30.9951 16.8474 30.1662 14.8353 28.6936 13.3474C27.221 11.8594 25.2237 11.0158 23.1357 11V15.3739C24.0675 15.3912 24.9554 15.7749 25.6088 16.4428C26.2623 17.1107 26.6292 18.0095 26.6308 18.9463V34.9121C26.6292 35.8488 26.2623 36.7476 25.6088 37.4155C24.9554 38.0834 24.0675 38.4672 23.1357 38.4845V42.8573C25.2237 42.8415 27.221 41.9979 28.6936 40.51C30.1662 39.022 30.9951 37.0099 31 34.911" fill="#313131"/>
<path d="M20.3692 11.073V50.9999H16V11.073" fill="#313131"/>
<path fill-rule="evenodd" clip-rule="evenodd" d="M61.3692 50.9999V42.88H64.1378C65.0482 42.9332 65.9095 43.3807 66.5484 44.0358C67.2195 44.7239 67.5904 45.6499 67.58 46.611V51H71.964V46.611C71.9904 44.4721 71.1663 42.4103 69.6728 40.879C69.6146 40.8193 69.5556 40.7607 69.4957 40.7031C69.5627 40.64 69.6287 40.5756 69.6936 40.51C71.1662 39.022 71.9951 37.0099 72 34.911V18.9463C71.9951 16.8474 71.1662 14.8353 69.6936 13.3474C68.2361 11.8747 66.2646 11.0332 64.2 11.0007L64.1357 11H57V50.9999H61.3692ZM61.3692 15.4V38.48H64.2V38.4827C65.1082 38.4494 65.9704 38.068 66.6088 37.4155C67.2623 36.7476 67.6292 35.8488 67.6308 34.9121V18.9463C67.6292 18.0095 67.2623 17.1107 66.6088 16.4428C65.9704 15.7903 65.1082 15.409 64.2 15.3757V15.4H61.3692Z" fill="#313131"/>
</svg>
