<svg width="24" height="24" viewBox="0 0 24 24" fill="none" xmlns="http://www.w3.org/2000/svg">
<path d="M21.6828 2.9711C21.4747 2.79479 21.2227 2.67814 20.9537 2.63357C20.6846 2.589 20.4085 2.61817 20.1547 2.71798L2.84842 9.51485C2.54487 9.6305 2.28775 9.84273 2.11666 10.1188C1.94556 10.395 1.86998 10.7197 1.90154 11.043C1.9297 11.3661 2.06187 11.6715 2.27822 11.9132C2.49458 12.1549 2.78346 12.3199 3.10154 12.3836L7.49842 13.2555V18.7492C7.49826 19.0464 7.58639 19.337 7.75164 19.584C7.91688 19.831 8.15178 20.0234 8.42654 20.1367C8.60838 20.2099 8.80241 20.2481 8.99841 20.2492C9.19542 20.2499 9.39059 20.2113 9.5725 20.1356C9.7544 20.06 9.91938 19.9488 10.0578 19.8086L12.4953 17.3805L16.1797 20.6242C16.4517 20.8641 16.8014 20.9973 17.164 20.9992C17.3235 21.0025 17.4823 20.9771 17.6328 20.9242C17.8802 20.8459 18.1029 20.7044 18.2788 20.5137C18.4547 20.323 18.5778 20.0896 18.6359 19.8367L22.1609 4.44298C22.2225 4.17735 22.2106 3.89996 22.1263 3.64062C22.0421 3.38128 21.8887 3.14981 21.6828 2.9711ZM8.07029 11.8398L3.40154 10.9117L16.489 5.76485L8.07029 11.8398ZM8.99841 18.7492V14.3055L11.3609 16.3867L8.99841 18.7492ZM17.1734 19.4992L9.44841 12.7023L20.5765 4.66798L17.1734 19.4992Z" fill="white"/>
</svg>
