<svg width="24" height="24" viewBox="0 0 24 24" fill="none" xmlns="http://www.w3.org/2000/svg">
<path fill-rule="evenodd" clip-rule="evenodd" d="M14.3365 6.83168L12.3304 3.72854C12.1334 3.42382 11.6876 3.42382 11.4906 3.72854L9.48443 6.83168C9.01216 7.56219 8.28479 8.09066 7.44409 8.31407L3.8729 9.26311C3.52222 9.3563 3.38446 9.78027 3.61339 10.0618L5.94472 12.9287C6.49354 13.6036 6.77137 14.4586 6.72406 15.3272L6.52308 19.0169C6.50335 19.3792 6.864 19.6413 7.20249 19.5105L10.6495 18.1792C11.4609 17.8658 12.36 17.8658 13.1715 18.1792L16.6185 19.5105C16.9569 19.6413 17.3176 19.3792 17.2979 19.0169L17.0969 15.3272C17.0496 14.4586 17.3274 13.6036 17.8762 12.9287L20.2075 10.0618C20.4365 9.78027 20.2987 9.3563 19.948 9.26311L16.3769 8.31407C15.5362 8.09066 14.8088 7.56219 14.3365 6.83168ZM13.59 2.91417C12.802 1.69528 11.0189 1.69528 10.2309 2.91417L8.22475 6.01731C7.95488 6.43474 7.53924 6.73673 7.05884 6.86439L3.48765 7.81342C2.08491 8.1862 1.53388 9.88207 2.44962 11.0082L4.78094 13.875C5.09455 14.2607 5.25331 14.7493 5.22628 15.2457L5.0253 18.9353C4.94636 20.3846 6.38896 21.4327 7.74292 20.9098L11.1899 19.5785C11.6536 19.3994 12.1674 19.3994 12.631 19.5785L16.078 20.9098C17.432 21.4327 18.8746 20.3846 18.7956 18.9353L18.5947 15.2457C18.5676 14.7493 18.7264 14.2607 19.04 13.875L21.3713 11.0082C22.2871 9.88207 21.736 8.1862 20.3333 7.81342L16.7621 6.86439C16.2817 6.73673 15.8661 6.43474 15.5962 6.01731L13.59 2.91417Z" fill="#E4AA47"/>
</svg>
