<svg width="24" height="24" viewBox="0 0 24 24" fill="none" xmlns="http://www.w3.org/2000/svg">
<path d="M12.0021 22.7504C6.80203 22.7504 2.58203 18.5204 2.58203 13.3304C2.58203 8.14039 6.80203 3.90039 12.0021 3.90039C13.0721 3.90039 14.1121 4.05039 15.1121 4.36039C15.5121 4.48039 15.7321 4.90039 15.6121 5.30039C15.4921 5.70039 15.0721 5.92039 14.6721 5.80039C13.8221 5.54039 12.9221 5.40039 12.0021 5.40039C7.63203 5.40039 4.08203 8.95039 4.08203 13.3204C4.08203 17.6904 7.63203 21.2404 12.0021 21.2404C16.3721 21.2404 19.9221 17.6904 19.9221 13.3204C19.9221 11.7404 19.4621 10.2204 18.5921 8.92039C18.3621 8.58039 18.4521 8.11039 18.8021 7.88039C19.1421 7.65039 19.6121 7.74039 19.8421 8.09039C20.882 9.64039 21.4321 11.4504 21.4321 13.3304C21.4221 18.5204 17.2021 22.7504 12.0021 22.7504Z" fill="currentColor"/>
<path d="M16.1285 6.07021C15.9185 6.07021 15.7085 5.98021 15.5585 5.81021L12.6685 2.49022C12.3985 2.18022 12.4285 1.70021 12.7385 1.43021C13.0485 1.16021 13.5285 1.19021 13.7985 1.50021L16.6885 4.82022C16.9585 5.13022 16.9285 5.61021 16.6185 5.88021C16.4885 6.01021 16.3085 6.07021 16.1285 6.07021Z" fill="currentColor"/>
<path d="M12.7602 8.52922C12.5302 8.52922 12.3002 8.41922 12.1502 8.21922C11.9102 7.88922 11.9802 7.41922 12.3102 7.16922L15.6802 4.70922C16.0102 4.45922 16.4802 4.53922 16.7302 4.86922C16.9802 5.19922 16.9002 5.66922 16.5702 5.91922L13.2002 8.38922C13.0702 8.48922 12.9202 8.52922 12.7602 8.52922Z" fill="currentColor"/>
<path d="M11.1084 13.6162L10.3857 13.4307L10.7422 9.89062H14.3896V10.7256H11.5088L11.2939 12.6592C11.4242 12.5843 11.5885 12.5143 11.7871 12.4492C11.9889 12.3841 12.2201 12.3516 12.4805 12.3516C12.9167 12.3516 13.2926 12.4492 13.6084 12.6445C13.9274 12.8398 14.1715 13.1165 14.3408 13.4746C14.5133 13.8294 14.5996 14.2493 14.5996 14.7344C14.5996 15.1868 14.5166 15.5921 14.3506 15.9502C14.1878 16.305 13.9404 16.585 13.6084 16.79C13.2764 16.9951 12.8564 17.0977 12.3486 17.0977C12.0622 17.0977 11.7904 17.0586 11.5332 16.9805C11.2793 16.8991 11.0514 16.777 10.8496 16.6143C10.651 16.4482 10.4883 16.2432 10.3613 15.999C10.2376 15.7516 10.1595 15.4619 10.127 15.1299H10.9863C11.0417 15.5335 11.1865 15.8395 11.4209 16.0479C11.6553 16.2529 11.9645 16.3555 12.3486 16.3555C12.6351 16.3555 12.8776 16.2904 13.0762 16.1602C13.2747 16.0299 13.4261 15.8444 13.5303 15.6035C13.6377 15.3594 13.6914 15.0729 13.6914 14.7441C13.6914 14.4447 13.6361 14.1761 13.5254 13.9385C13.4147 13.7008 13.2536 13.512 13.042 13.3721C12.8337 13.2321 12.5765 13.1621 12.2705 13.1621C11.9678 13.1621 11.7383 13.2028 11.582 13.2842C11.429 13.3656 11.2712 13.4762 11.1084 13.6162Z" fill="currentColor"/>
</svg>
