<svg width="24" height="24" viewBox="0 0 24 24" fill="none" xmlns="http://www.w3.org/2000/svg">
<path fill-rule="evenodd" clip-rule="evenodd" d="M15.2569 12.7808L15.5539 12.5132C16.4935 11.774 17.1793 10.7603 17.5159 9.61319C17.8525 8.46608 17.8232 7.24258 17.4321 6.1129C17.041 4.98322 16.3074 4.00353 15.3336 3.31014C14.3598 2.61675 13.194 2.24414 11.9985 2.24414C10.8031 2.24414 9.63731 2.61675 8.66346 3.31014C7.68962 4.00353 6.95611 4.98322 6.56499 6.1129C6.17386 7.24258 6.14456 8.46608 6.48118 9.61319C6.81779 10.7603 7.50357 11.774 8.44312 12.5132L8.78324 12.7808L8.38151 12.9417C6.74358 13.5979 5.31444 14.6863 4.24643 16.0909C3.17842 17.4954 2.51158 19.1635 2.31701 20.9172C2.30619 21.0158 2.31489 21.1156 2.3426 21.2108C2.37034 21.3062 2.41658 21.3951 2.47869 21.4726C2.60412 21.629 2.78656 21.7292 2.98587 21.7511C3.18518 21.7731 3.38503 21.7149 3.54147 21.5895C3.6979 21.464 3.79811 21.2816 3.82003 21.0823C4.04648 19.0664 5.00777 17.204 6.52013 15.852C8.03249 14.5001 9.98996 13.7527 12.0185 13.7527C14.0471 13.7527 16.0046 14.5001 17.5169 15.852C19.0293 17.204 19.9905 19.0658 20.217 21.0817C20.2374 21.266 20.3253 21.4366 20.4638 21.5599C20.6023 21.6832 20.7816 21.7508 20.967 21.7496L20.9685 21.7496L21.0632 21.7496C21.2546 21.7242 21.429 21.6258 21.5499 21.4747C21.6734 21.3203 21.7309 21.1234 21.71 20.9268C21.5145 19.1683 20.8441 17.4961 19.7706 16.0895C18.6971 14.6828 17.2611 13.5947 15.6163 12.942L15.2569 12.7808ZM9.63736 11.5334C10.3363 12.0004 11.158 12.2496 11.9985 12.2496C13.1257 12.2496 14.2067 11.8019 15.0037 11.0048C15.8008 10.2078 16.2485 9.12681 16.2485 7.99964C16.2485 7.15907 15.9993 6.33737 15.5323 5.63846C15.0653 4.93955 14.4015 4.39482 13.6249 4.07315C12.8484 3.75148 11.9938 3.66731 11.1694 3.8313C10.345 3.99529 9.5877 4.40006 8.99333 4.99443C8.39895 5.58881 7.99418 6.34608 7.83019 7.1705C7.66621 7.99492 7.75037 8.84946 8.07204 9.62604C8.39372 10.4026 8.93845 11.0664 9.63736 11.5334Z" fill="white"/>
</svg>
