<svg width="960" height="427" viewBox="0 0 960 427" fill="none" xmlns="http://www.w3.org/2000/svg">
<path d="M213.449 426.824H260.424V87.6223C260.303 82.5135 261.206 77.432 263.079 72.677C264.953 67.9219 267.759 63.5893 271.333 59.9334C274.907 56.2776 279.177 53.3724 283.891 51.389C288.605 49.4055 293.669 48.3836 298.784 48.3836C303.899 48.3836 308.963 49.4055 313.677 51.389C318.391 53.3724 322.661 56.2776 326.235 59.9334C329.809 63.5893 332.615 67.9219 334.488 72.677C336.362 77.432 337.265 82.5135 337.144 87.6223V426.835H384.119V87.6223C384.432 76.2302 382.456 64.8906 378.308 54.2742C374.161 43.6577 367.925 33.98 359.97 25.8118C352.015 17.6435 342.502 11.1504 331.993 6.71706C321.483 2.28372 310.191 0 298.784 0C287.376 0 276.084 2.28372 265.575 6.71706C255.066 11.1504 245.553 17.6435 237.598 25.8118C229.643 33.98 223.407 43.6577 219.26 54.2742C215.112 64.8906 213.136 76.2302 213.449 87.6223V426.835V426.824Z" fill="#F58A0E"/>
<path d="M650.955 426.824H697.93V87.6223C697.809 82.5135 698.712 77.432 700.586 72.677C702.459 67.9219 705.265 63.5893 708.839 59.9334C712.413 56.2776 716.683 53.3724 721.397 51.389C726.111 49.4055 731.175 48.3836 736.29 48.3836C741.405 48.3836 746.469 49.4055 751.183 51.389C755.897 53.3724 760.167 56.2776 763.741 59.9334C767.315 63.5893 770.121 67.9219 771.995 72.677C773.868 77.432 774.771 82.5135 774.65 87.6223V426.835H821.625V87.6223C821.938 76.2302 819.962 64.8906 815.815 54.2742C811.667 43.6577 805.431 33.98 797.476 25.8118C789.521 17.6435 780.008 11.1504 769.499 6.71706C758.99 2.28372 747.698 0 736.29 0C724.882 0 713.591 2.28372 703.082 6.71706C692.572 11.1504 683.059 17.6435 675.104 25.8118C667.149 33.98 660.914 43.6577 656.766 54.2742C652.618 64.8906 650.642 76.2302 650.955 87.6223V426.835V426.824Z" fill="#F58A0E"/>
<path d="M913.212 338.149C913.323 348.405 909.365 358.286 902.205 365.628C895.044 372.971 885.266 377.175 875.011 377.322H875.79V425.287H875.011C897.834 424.997 919.608 415.655 935.545 399.315C951.481 382.974 960.275 360.973 959.993 338.149V0H913.212V337.349" fill="#F58A0E"/>
<path d="M160.062 254.425V84.794C160.01 62.3973 151.165 40.9263 135.452 25.0484C119.738 9.17051 98.4241 0.168949 76.144 0V46.6733C86.0867 46.858 95.561 50.9528 102.534 58.0799C109.507 65.2069 113.422 74.7979 113.44 84.794V255.162C113.422 265.159 109.507 274.749 102.534 281.876C95.561 289.003 86.0867 293.099 76.144 293.283V339.945C98.4241 339.776 119.738 330.775 135.452 314.897C151.165 299.019 160.01 277.548 160.062 255.151" fill="#F58A0E"/>
<path d="M46.6226 0.778946V426.833H0V0.778946" fill="#F58A0E"/>
<path fill-rule="evenodd" clip-rule="evenodd" d="M484.128 426.833V340.187H513.671C523.387 340.755 532.578 345.53 539.395 352.521C546.556 359.863 550.514 369.745 550.403 380V426.835H597.184V380C597.466 357.176 588.672 335.175 572.735 318.835C572.114 318.198 571.484 317.572 570.846 316.958C571.56 316.284 572.264 315.597 572.957 314.897C588.671 299.019 597.516 277.548 597.568 255.151V84.794C597.516 62.3973 588.671 40.9263 572.957 25.0484C557.405 9.33347 536.367 0.354441 514.336 0.00799077L513.65 0H437.505V426.833H484.128ZM484.128 46.9518V293.235H514.336V293.264C524.027 292.908 533.227 288.839 540.04 281.876C547.012 274.749 550.928 265.159 550.946 255.162V84.794C550.928 74.7979 547.012 65.2069 540.04 58.0799C533.227 51.1168 524.027 47.048 514.336 46.6923V46.9518H484.128Z" fill="#F58A0E"/>
</svg>
