<svg width="24" height="24" viewBox="0 0 24 24" fill="none" xmlns="http://www.w3.org/2000/svg">
<path d="M12.55 20.5906C11.76 20.5906 10.89 20.3106 10.02 19.7606L7.1 17.9306C6.9 17.8106 6.67 17.7406 6.44 17.7406H5C2.58 17.7406 1.25 16.4106 1.25 13.9906V9.99059C1.25 7.57059 2.58 6.24059 5 6.24059H6.43C6.66 6.24059 6.89 6.17059 7.09 6.05059L10.01 4.22059C11.47 3.31059 12.89 3.14059 14.01 3.76059C15.13 4.38059 15.74 5.67059 15.74 7.40059V16.5706C15.74 18.2906 15.12 19.5906 14.01 20.2106C13.57 20.4706 13.07 20.5906 12.55 20.5906ZM5 7.75059C3.42 7.75059 2.75 8.42059 2.75 10.0006V14.0006C2.75 15.5806 3.42 16.2506 5 16.2506H6.43C6.95 16.2506 7.45 16.3906 7.89 16.6706L10.81 18.5006C11.77 19.1006 12.68 19.2606 13.29 18.9206C13.9 18.5806 14.25 17.7306 14.25 16.6006V7.41059C14.25 6.27059 13.9 5.42059 13.29 5.09059C12.68 4.75059 11.77 4.90059 10.81 5.51059L7.88 7.33059C7.45 7.61059 6.94 7.75059 6.43 7.75059H5Z" fill="currentColor"/>
<path d="M18 16.7506C17.84 16.7506 17.69 16.7006 17.55 16.6006C17.22 16.3506 17.15 15.8806 17.4 15.5506C18.97 13.4606 18.97 10.5406 17.4 8.45059C17.15 8.12059 17.22 7.65059 17.55 7.40059C17.88 7.15059 18.35 7.22059 18.6 7.55059C20.56 10.1706 20.56 13.8306 18.6 16.4506C18.45 16.6506 18.23 16.7506 18 16.7506Z" fill="currentColor"/>
<path d="M19.83 19.2506C19.67 19.2506 19.52 19.2006 19.38 19.1006C19.05 18.8506 18.98 18.3806 19.23 18.0506C21.9 14.4906 21.9 9.51059 19.23 5.95059C18.98 5.62059 19.05 5.15059 19.38 4.90059C19.71 4.65059 20.18 4.72059 20.43 5.05059C23.5 9.14059 23.5 14.8606 20.43 18.9506C20.29 19.1506 20.06 19.2506 19.83 19.2506Z" fill="currentColor"/>
</svg>
