<svg width="24" height="24" viewBox="0 0 24 24" fill="none" xmlns="http://www.w3.org/2000/svg">
<path d="M12.0021 22.7506C6.80203 22.7506 2.58203 18.5206 2.58203 13.3306C2.58203 11.4606 3.13203 9.65062 4.17203 8.09062C4.40203 7.75062 4.87203 7.65062 5.21203 7.88063C5.55203 8.11062 5.65203 8.58062 5.42203 8.92062C4.55203 10.2206 4.09203 11.7506 4.09203 13.3206C4.09203 17.6906 7.64203 21.2406 12.0121 21.2406C16.3821 21.2406 19.9321 17.6906 19.9321 13.3206C19.9321 8.95062 16.3721 5.40062 12.0021 5.40062C11.0821 5.40062 10.1821 5.53062 9.33203 5.79062C8.93203 5.91062 8.51203 5.69062 8.39203 5.29062C8.27203 4.89062 8.49203 4.47062 8.89203 4.35062C9.89203 4.05062 10.9321 3.89062 12.0021 3.89062C17.2021 3.89062 21.4221 8.12063 21.4221 13.3106C21.4221 18.5006 17.2021 22.7506 12.0021 22.7506Z" fill="currentColor"/>
<path d="M7.87035 6.07012C7.70035 6.07012 7.52035 6.01012 7.38035 5.89012C7.06035 5.61012 7.03036 5.14012 7.30036 4.83012L10.1903 1.51012C10.4603 1.20012 10.9403 1.16012 11.2503 1.44012C11.5603 1.71012 11.5903 2.19012 11.3203 2.50012L8.43036 5.81012C8.28036 5.98012 8.07035 6.07012 7.87035 6.07012Z" fill="currentColor"/>
<path d="M11.2396 8.53013C11.0896 8.53013 10.9296 8.48013 10.7996 8.39013L7.41959 5.92013C7.08959 5.68013 7.01959 5.21013 7.25959 4.88013C7.49959 4.54013 7.96959 4.47013 8.30959 4.71013L11.6796 7.17013C12.0096 7.41013 12.0896 7.88013 11.8396 8.22013C11.6996 8.43013 11.4696 8.53013 11.2396 8.53013Z" fill="currentColor"/>
<path d="M11.1084 13.6162L10.3857 13.4307L10.7422 9.89062H14.3896V10.7256H11.5088L11.2939 12.6592C11.4242 12.5843 11.5885 12.5143 11.7871 12.4492C11.9889 12.3841 12.2201 12.3516 12.4805 12.3516C12.9167 12.3516 13.2926 12.4492 13.6084 12.6445C13.9274 12.8398 14.1715 13.1165 14.3408 13.4746C14.5133 13.8294 14.5996 14.2493 14.5996 14.7344C14.5996 15.1868 14.5166 15.5921 14.3506 15.9502C14.1878 16.305 13.9404 16.585 13.6084 16.79C13.2764 16.9951 12.8564 17.0977 12.3486 17.0977C12.0622 17.0977 11.7904 17.0586 11.5332 16.9805C11.2793 16.8991 11.0514 16.777 10.8496 16.6143C10.651 16.4482 10.4883 16.2432 10.3613 15.999C10.2376 15.7516 10.1595 15.4619 10.127 15.1299H10.9863C11.0417 15.5335 11.1865 15.8395 11.4209 16.0479C11.6553 16.2529 11.9645 16.3555 12.3486 16.3555C12.6351 16.3555 12.8776 16.2904 13.0762 16.1602C13.2747 16.0299 13.4261 15.8444 13.5303 15.6035C13.6377 15.3594 13.6914 15.0729 13.6914 14.7441C13.6914 14.4447 13.6361 14.1761 13.5254 13.9385C13.4147 13.7008 13.2536 13.512 13.042 13.3721C12.8337 13.2321 12.5765 13.1621 12.2705 13.1621C11.9678 13.1621 11.7383 13.2028 11.582 13.2842C11.429 13.3656 11.2712 13.4762 11.1084 13.6162Z" fill="currentColor"/>
</svg>
